HIERARCHY
ROOT Hips
{
	OFFSET 0.000000 0.000000 0.000000 
	CHANNELS 6 Xposition Yposition Zposition Zrotation Yrotation Xrotation
	JOINT LeftUpLeg
	{
		OFFSET 1.363060 -1.794630 0.839290 
		CHANNELS 3 Zrotation Yrotation Xrotation
		JOINT LeftLeg
		{
			OFFSET 2.448110 -6.726130 0.000000 
			CHANNELS 3 Zrotation Yrotation Xrotation
			JOINT LeftFoot
			{
				OFFSET 2.562200 -7.039590 0.000000 
				CHANNELS 3 Zrotation Yrotation Xrotation
				JOINT LeftToeBase
				{
					OFFSET 0.157640 -0.433110 2.322550 
					CHANNELS 3 Zrotation Yrotation Xrotation
					End Site
					{
						OFFSET 0.000000 0.000000 0.000000 
					}
				}
			}
		}
	}
	JOINT RightUpLeg
	{
		OFFSET -1.305520 -1.794630 0.839290 
		CHANNELS 3 Zrotation Yrotation Xrotation
		JOINT RightLeg
		{
			OFFSET -2.542530 -6.985550 0.000000 
			CHANNELS 3 Zrotation Yrotation Xrotation
			JOINT RightFoot
			{
				OFFSET -2.568260 -7.056230 0.000000 
				CHANNELS 3 Zrotation Yrotation Xrotation
				JOINT RightToeBase
				{
					OFFSET -0.164730 -0.452590 2.363150 
					CHANNELS 3 Zrotation Yrotation Xrotation
					End Site
					{
						OFFSET 0.000000 0.000000 0.000000 
					}
				}
			}
		}
	}
	JOINT Spine
	{
		OFFSET 0.028270 2.035590 -0.193380 
		CHANNELS 3 Zrotation Yrotation Xrotation
		JOINT Spine1
		{
			OFFSET 0.056720 2.048850 -0.042750 
			CHANNELS 3 Zrotation Yrotation Xrotation
			JOINT Neck1
			{
				OFFSET -0.054170 1.746240 0.172020 
				CHANNELS 3 Zrotation Yrotation Xrotation
				JOINT Head
				{
					OFFSET 0.104070 1.761360 -0.123970 
					CHANNELS 3 Zrotation Yrotation Xrotation
					End Site
					{
						OFFSET 0.000000 0.000000 0.000000 
					}
				}
			}
			JOINT LeftArm
			{
				OFFSET 3.362410 1.200890 -0.311210 
				CHANNELS 3 Zrotation Yrotation Xrotation
				JOINT LeftForeArm
				{
					OFFSET 4.983000 -0.000000 -0.000000 
					CHANNELS 3 Zrotation Yrotation Xrotation
					JOINT LeftHand
					{
						OFFSET 3.483560 -0.000000 -0.000000 
						CHANNELS 3 Zrotation Yrotation Xrotation
						JOINT LeftHandIndex1
						{
							OFFSET 0.715260 -0.000000 -0.000000 
							CHANNELS 3 Zrotation Yrotation Xrotation
							End Site
							{
								OFFSET 0.000000 0.000000 0.000000 
							}
						}
					}
				}
			}
			JOINT RightArm
			{
				OFFSET -3.136600 1.374050 -0.404650 
				CHANNELS 3 Zrotation Yrotation Xrotation
				JOINT RightForeArm
				{
					OFFSET -5.241900 -0.000000 -0.000000 
					CHANNELS 3 Zrotation Yrotation Xrotation
					JOINT RightHand
					{
						OFFSET -3.444170 -0.000000 -0.000000 
						CHANNELS 3 Zrotation Yrotation Xrotation
						JOINT RightHandIndex1
						{
							OFFSET -0.622530 -0.000000 -0.000000 
							CHANNELS 3 Zrotation Yrotation Xrotation
							End Site
							{
								OFFSET 0.000000 0.000000 0.000000 
							}
						}
					}
				}
			}
		}
	}
}
MOTION
Frames: 15
Frame Time: 0.041667
0.141415 17.583838 -1.212845 149.851350 82.763569 134.902338 -28.406233 1.500581 24.709217 -1.176976 5.603719 14.747840 0.566551 -1.174953 -11.716120 0.163500 -2.604800 -7.180500 3.185726 -13.680312 16.594493 -0.408726 -3.696913 7.094302 -0.067642 -5.301743 -9.282354 -0.492300 -4.498700 12.484200 -0.230135 2.624615 -1.133196 2.018091 0.303845 7.518987 3.093583 -0.808304 19.346541 -2.430900 1.142100 19.007600 -28.050978 -57.993107 19.751129 24.034193 -33.338745 -8.053279 0.812909 0.557966 -0.258445 -7.125000 0.000000 0.000000 38.477015 55.343344 21.906376 -23.473181 36.102907 -6.534495 0.811360 -1.508955 1.525790 7.125000 0.000000 0.000000 
0.191664 17.588966 -1.201257 150.861937 82.476377 135.932691 -28.369816 1.508291 24.795525 -1.162909 5.625015 14.829022 0.558914 -1.261163 -11.492927 0.188200 -2.794200 -7.706400 3.168049 -13.566233 16.543076 -0.412213 -3.646089 6.963436 -0.068893 -5.222220 -9.151458 -0.490600 -4.491100 12.462600 -0.245693 2.649247 -1.164888 1.986073 0.320087 7.467238 3.164790 -0.894673 19.326273 -2.377200 1.112000 18.979200 -28.119992 -58.007399 20.005596 24.117429 -33.415700 -8.093339 0.810258 0.553831 -0.280899 -7.125000 0.000000 0.000000 38.586166 55.301179 21.783104 -23.403829 36.022790 -6.495448 0.812270 -1.502767 1.553905 7.125000 0.000000 0.000000 
0.243964 17.595426 -1.192848 150.984644 82.274412 136.083364 -28.411628 1.571874 24.892374 -1.151126 5.648955 14.902700 0.562340 -1.371573 -11.400164 0.164900 -2.616100 -7.211700 3.069318 -13.479427 16.482200 -0.415267 -3.578242 6.800823 -0.070459 -5.111092 -8.969233 -0.494200 -4.507200 12.508300 -0.281074 2.692378 -1.200303 1.869272 0.357774 7.426018 3.257443 -0.939079 19.340980 -2.284100 1.093200 19.014800 -28.125099 -57.986425 20.162756 24.156637 -33.446294 -8.110485 0.812132 0.548481 -0.224348 -7.125000 0.000000 0.000000 38.745121 55.313910 21.827368 -23.360850 35.972363 -6.472879 0.810403 -1.501186 1.485370 7.125000 0.000000 0.000000 
0.298725 17.599528 -1.182183 151.952705 81.974979 137.053309 -28.406247 1.549144 25.040308 -1.134004 5.678159 15.008888 0.576242 -1.576993 -11.328317 0.121600 -2.247900 -6.191100 2.971808 -13.498435 16.484304 -0.412363 -3.511224 6.614425 -0.066960 -5.069194 -8.681740 -0.416600 -4.142900 11.478900 -0.299602 2.674893 -1.216578 1.818859 0.349124 7.455972 3.374560 -0.933088 19.329530 -2.160400 1.083900 19.022400 -28.010575 -57.968137 20.184618 24.170897 -33.457035 -8.116025 0.812341 0.546101 -0.271588 -7.125000 0.000000 0.000000 38.788162 55.229750 21.924340 -23.400686 36.010883 -6.490593 0.808666 -1.499402 1.443460 7.125000 0.000000 0.000000 
0.355332 17.601374 -1.168339 154.038971 81.564005 139.108305 -28.289176 1.441584 25.255178 -1.117353 5.692001 15.099134 0.585074 -1.736456 -11.239111 0.102600 -2.065900 -5.687800 2.960375 -13.621596 16.555248 -0.402919 -3.457230 6.423621 -0.060394 -5.113123 -8.432793 -0.381900 -3.968500 10.988000 -0.297836 2.623587 -1.233159 1.804995 0.317675 7.451161 3.410165 -0.958344 19.304262 -2.129200 1.071700 19.003800 -28.064895 -58.020876 20.337413 24.215406 -33.493973 -8.134296 0.811217 0.540471 -0.291960 -7.125000 0.000000 0.000000 38.757991 54.974247 21.944316 -23.492300 36.096922 -6.533236 0.810022 -1.496694 1.445423 7.125000 0.000000 0.000000 
0.411016 17.602912 -1.154187 154.538057 81.104676 139.574201 -28.426293 1.381125 25.421685 -1.103526 5.738001 15.238456 0.584858 -1.780747 -11.183141 0.111600 -2.153700 -5.930600 2.621047 -13.741574 16.671234 -0.389527 -3.384466 6.234731 -0.055260 -5.148666 -8.232558 -0.462300 -4.361300 12.095500 -0.295975 2.584571 -1.225983 1.912986 0.276175 7.538565 3.283658 -0.964526 19.277973 -2.252700 1.066500 19.007700 -28.123472 -58.021576 20.204597 24.242795 -33.528244 -8.153124 0.814666 0.535389 -0.053703 -7.125000 0.000000 0.000000 38.576002 54.987492 21.865672 -23.500122 36.112426 -6.545550 0.806117 -1.504435 1.357944 7.125000 0.000000 0.000000 
0.461265 17.603835 -1.141368 153.601852 80.829570 138.651230 -28.704018 1.406085 25.426726 -1.083363 5.834887 15.478841 0.575863 -1.768929 -11.083315 0.132600 -2.347000 -6.465500 2.278464 -13.617940 16.638914 -0.390685 -3.340126 6.179968 -0.053315 -5.138474 -8.027817 -0.537200 -4.696200 13.044100 -0.294530 2.647246 -1.206702 2.105207 0.278748 7.675746 3.215335 -0.934880 19.206277 -2.312400 1.060700 18.934800 -28.132501 -58.023034 19.905023 24.196749 -33.502405 -8.141157 0.821854 0.539109 0.248253 -7.125000 0.000000 0.000000 38.355589 55.163267 21.706708 -23.424026 36.051747 -6.518467 0.802320 -1.512986 1.367444 7.125000 0.000000 0.000000 
0.516026 17.607629 -1.125576 153.710851 80.367896 138.743523 -28.845299 1.389118 25.480783 -1.060722 5.896385 15.655807 0.574348 -1.955126 -10.829599 0.179600 -2.729600 -7.526900 2.023999 -13.433171 16.848431 -0.378046 -3.213917 5.882357 -0.038469 -5.435064 -7.967121 -0.583100 -4.889400 13.593300 -0.388026 2.620734 -1.335849 1.738399 0.342693 7.170733 3.310107 -1.016675 19.207798 -2.267100 1.075800 18.903800 -28.383909 -57.912300 20.595919 24.207984 -33.478942 -8.136588 0.824566 0.545219 0.225130 -7.125000 0.000000 0.000000 39.119919 54.828730 22.063737 -23.369671 35.958710 -6.486923 0.818203 -1.512140 1.522582 7.125000 0.000000 0.000000 
0.566787 17.608655 -1.114398 153.795182 80.134000 138.884695 -28.828027 1.490121 25.509686 -1.045665 5.928136 15.749715 0.573670 -2.038566 -10.716330 0.233200 -3.108300 -8.580400 1.838358 -13.532246 16.675586 -0.377007 -3.194169 5.839302 -0.035820 -5.441494 -7.617022 -0.601700 -4.965400 13.809800 -0.383703 2.702114 -1.324296 1.855072 0.361573 7.302060 3.313646 -1.018937 19.182938 -2.248000 1.056500 18.886100 -28.422491 -58.108276 20.468840 24.109195 -33.381658 -8.084028 0.834464 0.544245 0.181480 -7.125000 0.000000 0.000000 38.760250 54.788235 21.862246 -23.395163 35.982997 -6.495414 0.821503 -1.507223 1.326167 7.125000 0.000000 0.000000 
0.625035 17.611424 -1.094811 155.710999 79.721815 140.806890 -28.545793 1.422944 25.694188 -1.015907 5.967762 15.924232 0.584941 -2.204217 -10.654031 0.250800 -3.222200 -8.898100 1.886608 -13.764758 16.815713 -0.359463 -3.097683 5.497753 -0.026054 -5.602645 -7.438659 -0.592800 -4.929200 13.706700 -0.328304 2.633941 -1.248416 2.151254 0.254588 7.730361 3.340915 -1.026603 19.139870 -2.197400 1.013000 18.867300 -28.138542 -58.278041 19.937734 24.070311 -33.368312 -8.074292 0.845180 0.538604 0.107300 -7.125000 0.000000 0.000000 37.970513 54.844381 21.589658 -23.508973 36.117322 -6.549235 0.818732 -1.502792 0.968830 7.125000 0.000000 0.000000 
0.681129 17.614193 -1.075532 156.295445 79.376111 141.354011 -28.499199 1.391629 25.846489 -0.996811 6.006186 16.062841 0.586951 -2.270735 -10.599220 0.253200 -3.237700 -8.941200 1.816124 -13.679741 16.998556 -0.351076 -2.978627 5.175321 -0.019540 -5.703875 -7.447738 -0.563700 -4.808900 13.364300 -0.349544 2.560928 -1.316860 2.088366 0.240727 7.484580 3.448601 -1.016815 19.141292 -2.094200 1.018600 18.924200 -28.188873 -58.122560 20.083658 24.108347 -33.384514 -8.087482 0.847915 0.531519 0.089697 -7.125000 0.000000 0.000000 38.089983 54.673807 21.838705 -23.596501 36.168627 -6.580824 0.828478 -1.499010 0.985154 7.125000 0.000000 0.000000 
0.738351 17.614910 -1.057586 156.531169 79.173593 141.571282 -28.425438 1.427108 26.030433 -0.994454 5.974535 16.004299 0.586330 -2.415401 -10.413628 0.202200 -2.895500 -7.988100 1.834651 -13.485000 17.052519 -0.353864 -2.929339 5.059712 -0.019028 -5.713352 -7.525727 -0.574000 -4.851600 13.485900 -0.356198 2.557784 -1.376385 2.086640 0.253793 7.280829 3.516950 -0.982351 19.152631 -2.030000 1.038200 18.957200 -28.429729 -58.044919 20.213880 24.101591 -33.364489 -8.081220 0.851208 0.530364 0.217450 -7.125000 0.000000 0.000000 38.279219 54.593170 21.985797 -23.571923 36.119978 -6.564534 0.831585 -1.499707 1.128960 7.125000 0.000000 0.000000 
0.797522 17.616038 -1.041588 157.120148 78.951072 142.150826 -28.269758 1.468690 26.240856 -0.989530 5.927736 15.916964 0.589586 -2.692163 -10.123263 0.120900 -2.241300 -6.172900 1.817639 -13.519193 17.009228 -0.356373 -2.933802 5.062496 -0.026835 -5.543353 -7.553954 -0.582800 -4.888200 13.590100 -0.374419 2.613549 -1.407540 1.995912 0.295314 7.211521 3.496599 -1.125607 19.135533 -2.082200 1.003000 18.893800 -28.520673 -58.113754 20.427508 24.159728 -33.416754 -8.110567 0.848884 0.533004 0.158510 -7.125000 0.000000 0.000000 38.463049 54.455792 21.912409 -23.461275 36.004029 -6.510644 0.828107 -1.497693 1.326333 7.125000 0.000000 0.000000 
0.856898 17.619115 -1.026616 157.081356 78.563071 142.145059 -28.340727 1.496978 26.368186 -0.974867 5.949561 15.988003 0.592521 -2.927045 -9.893537 0.096900 -2.007800 -5.527200 1.478390 -13.635943 17.014712 -0.349459 -2.908369 5.013106 -0.030340 -5.440112 -7.464856 -0.529600 -4.663600 12.951500 -0.395133 2.622843 -1.378404 2.021793 0.277601 7.448992 3.456606 -1.220893 19.078599 -2.140000 0.964200 18.811100 -28.300514 -58.270552 20.171073 24.103076 -33.366017 -8.076799 0.848176 0.527706 0.141079 -7.125000 0.000000 0.000000 38.521758 54.585787 21.519502 -23.294720 35.864139 -6.435356 0.820625 -1.494096 1.753365 7.125000 0.000000 0.000000 
0.916068 17.621371 -1.011644 157.052567 78.164986 142.124809 -28.418676 1.518559 26.473555 -0.960445 5.980285 16.084950 0.586569 -3.030048 -9.691361 0.128100 -2.306700 -6.354100 1.121819 -13.744500 17.068280 -0.339248 -2.867292 4.928058 -0.027051 -5.472758 -7.291229 -0.529100 -4.661300 12.944900 -0.411696 2.559691 -1.465523 2.021510 0.267862 7.148241 3.420648 -1.261519 19.165990 -2.169800 0.963400 18.946300 -28.718235 -58.227733 20.381537 23.990408 -33.223682 -8.005683 0.863533 0.516305 0.409561 -7.125000 0.000000 0.000000 38.722277 54.399238 21.817795 -23.310602 35.835841 -6.430229 0.829952 -1.491342 1.766905 7.125000 0.000000 0.000000 
